<?xml version="1.0" encoding="utf-8"?>
<!-- Generator: Adobe Illustrator 16.0.3, SVG Export Plug-In . SVG Version: 6.00 Build 0)  -->
<!DOCTYPE svg PUBLIC "-//W3C//DTD SVG 1.1//EN" "http://www.w3.org/Graphics/SVG/1.1/DTD/svg11.dtd">
<svg version="1.1" id="Capa_1" xmlns="http://www.w3.org/2000/svg" xmlns:xlink="http://www.w3.org/1999/xlink" x="0px" y="0px"
	 width="346px" height="162.377px" viewBox="577.5 387.5 346 162.377" enable-background="new 577.5 387.5 346 162.377"
	 xml:space="preserve">
<g>
	<defs>
		<path id="SVGID_1_" d="M634.122,484.161c-1.891,3.164-2.921,6.645-5.458,9.333c-2.372,2.513-4.532,5.062-6.746,7.708
			c-3.06,3.659-5.191,7.618-8.958,10.795c-4.303,3.629-9.744,6.006-13.504,10.308c-4.681,5.354-7.168,15.291,1.66,17.51
			c7.832,1.968,16.823-3.931,22.671-8.501c4.167-3.256,8.126-6.486,11.89-10.201c3.191-3.15,6.88-6.301,9.238-10.164
			c1.049-1.721,2.383-3.56,3.013-5.488c0.72-2.209,0.771-4.67,1.155-6.945c0.426-2.531,1.347-4.838,1.924-7.303
			c0.433-1.85,0.658-3.887,1.325-5.688c2.643-7.133,12.214-4.093,18.08-4.197c2.754-0.049,5.385-0.914,8.041-1.504
			c2.406-0.533,5.044-1.555,5.513,1.627c0.872,5.92,2.262,12.657,5.325,17.877c2.011,3.427,5.404,8.082,8.82,10.133
			c3.674,2.205,9.363,0.854,13.222-0.416c7.67-2.523,17.305-8.574,17.308-17.561c0.967,0.721,1.342,2.107,2.187,3.025
			c0.772,0.841,1.793,1.411,2.792,1.948c2.071,1.112,4.246,1.665,6.528,2.245c3.236,0.823,6.543,0.924,9.821,0.324
			c2.385-0.438,3.994-1.755,6.039-2.968c1.002,1.67,0.773,5.235,1.404,7.267c1.131,3.646,2.162,7.594,4.927,10.351
			c1.809,1.802,4.572,2.56,7.102,2.489c2.898-0.082,5.967-2,8.174-3.713c1.23-0.955,2.035-1.916,2.813-3.254
			c0.492-0.843,0.316-1.667,1.535-2.049c2.303-0.723,3.896,2.908,5.818,3.682c2.566,1.031,5.553-0.322,8.133-0.703
			c7.982-1.18,14.525-5.432,18.707-12.088c1.367-2.178,2.168-3.555,4.744-2.563c1.531,0.589,1.705,0.903,3.258-0.104
			c1.121-0.725,1.568-1.461,2.996-1.373c2.285,0.142,3.795,2.83,5.889,3.711c2.662,1.121,5.16,0.752,7.912,1.08
			c4.578,0.548,8.594,0.801,13.246,1.08c2.834,0.169,4.881-0.915,7.588,0.254c2.313,0.998,4.758,1.713,7.33,1.467
			c3.998-0.382,7.793-1.306,11.58-2.634c2.535-0.889,6.123-2.56,6.318-5.745c1.803,2.684,2.057,6.357,3.439,9.236
			c1.412,2.94,2.16,6.398,3.99,9.134c2.301,3.439,5.998,3.212,9.754,2.562c2.396-0.414,5.699-1.523,7.791-2.783
			c3.082-1.857,3.137-4.523,2.68-7.758c-0.422-2.979-0.988-5.974-1.467-8.936c-0.432-2.669-2.771-4.676-4.094-7.008
			c-2.164-3.814-1.527-9.338-1.473-13.502c0.057-4.222-0.602-8.616-0.82-12.854c-0.178-3.444,0.311-6.903,0.65-10.308
			c0.373-3.725,0.041-7.016-0.283-10.711c-0.414-4.703,0.158-9.148,0.32-13.814c0.178-5.154,1.646-10.773,0.621-15.849
			c-0.693-3.421-1.373-5.8-4.119-8.134c-2.109-1.793-5.291-2.971-8.074-3.292c-3.27-0.377-8.221-1.797-11.27-0.045
			c-2.416,1.388-3.344,4.362-4.217,6.809c-1.801,5.059-4.127,10.632-4.443,16.053c-0.473,8.146,1.311,16.341,2.492,24.353
			c0.639,4.315,0.355,8.277,0.33,12.59c-0.02,3.336,0.221,7.327-0.709,10.545c-0.793,2.741-2.531,6.839-5.633,7.17
			c-1.16,0.124-2.57-0.072-3.82,0.029c-1.834,0.15-3.668,1.202-5.508,0.766c-4.156-0.984-4.949-3.85-7.201-6.978
			c-0.818-1.138-2.197-3.047-3.508-3.544c-1.318-0.5-3.443-0.057-4.816,0.044c-6.016,0.44-11.045,3.459-16.668,5.149
			c-7.586,2.281-6.508-11.75-6.473-15.962c0.078-9.297,6.791-16.845,7.645-26.017c0.387-4.159,0.639-8.428,1.566-12.52
			c0.68-3.002,1.023-5.928,0.457-8.969c-0.762-4.094-2.938-7.319-7.193-7.508c-6.074-0.27-11.092,2.465-13.48,8.168
			c-4.248,10.143-3.916,20.27-4.455,30.998c-0.191,3.813-0.006,7.439-0.916,11.172c-1.074,4.406-3.107,11.185-7.113,13.836
			c-2.766,1.832-6.068,1.557-9.049,2.78c-2.686,1.103-6.016,2.981-8.955,1.719c-2.875-1.235-5.41-5.469-6.646-8.188
			c-1.018-2.236-1.17-4.256-0.902-6.643c0.418-3.72,1.92-7.101,2.389-10.816c0.828-6.564-1.316-17.217-10.227-14.992
			c-9.118,2.278-11.472,10.221-8.95,18.93c1.367,4.716,2.641,9.505,1.625,14.412c-0.355,1.716-0.766,3.227-1.793,4.666
			c-1.27,1.777-2.998,2.537-4.471,3.939c-1.914,1.824-1.041,4.936-2.733,6.871c-1.584,1.812-3.758,1.264-5.437-0.219
			c-2.017-1.782-3.405-4.605-5.147-6.63c-3.551-4.126-7.805-8.166-13.728-5.637c-4.099,1.75-7.522,5.073-9.87,8.714
			c-1.825,2.831-4.407,5.102-6.246,7.898c-1.086,1.652-1.884,3.797-3.732,4.824c-1.688-1.168-2.553-4.857-3.305-6.682
			c-1.185-2.873-1.414-5.859-2.209-8.833c-1.017-3.8-1.615-8.026-3.274-11.617c-3.786-8.19-14.477,2.593-19.967,3.301
			c-2.748,0.354-5.532,0.326-8.298,0.557c-2.067,0.172-5.917,1.483-7.756,0.15c-3.488-2.528-1.236-10.251,0.503-12.981
			c4.384-6.885,10.04-13.38,15.72-19.216c4.879-5.013,12.13-8.959,19.153-9.689c6.389-0.665,12.777-1.224,19.177-1.659
			c3.819-0.26,7.568-1.089,11.373-1.441c2.883-0.268,5.854-1.058,8.705-1.207c6.165-0.323,21.742-2.136,22.215-10.7
			c0.227-4.095-3.184-6.098-6.822-6.997c-5.417-1.339-11.483-1.999-17.05-2.597c-5.061-0.543-10.246,0.322-15.299,0.309
			c-5.31-0.014-10.628-0.034-15.883,0.671c-18.891,2.534-36.214,10.988-47.924,26.501c-5.236,6.936-10.441,15.149-12.898,23.588
			c-1.21,4.156-1.387,8.414-2.331,12.615c-0.548,2.44-0.177,5.999-3.356,6.428c-1.25,0.169-2.485-0.256-3.763-0.077
			c-1.77,0.247-3.495,1.022-5.298,1.277c-4.513,0.64-9.035,0.981-13.545,1.571c-4.67,0.611-8.502,1.643-12.838,3.472
			c-3.672,1.55-8.165,3.196-11.009,6.112c-4.873,4.996,0.238,11.393,5.994,11.678c8.048,0.399,14.544-3.602,22.155-5.182
			c2.716-0.563,5.325-1.484,8.012-2.158c1.652-0.413,9.101-1.395,6.854,2.504"/>
	</defs>
	<clipPath id="SVGID_2_">
		<use xlink:href="#SVGID_1_"  overflow="visible"/>
	</clipPath>
	<g transform="matrix(1 1.720221e-009 -1.720221e-009 1 -1.031218e-005 -5.492523e-007)" clip-path="url(#SVGID_2_)">
		
			<image overflow="visible" width="2500" height="1667" xlink:href="A8F28120.jpg"  transform="matrix(0.1526 0.0072 -0.0072 0.1526 565.8445 354.6318)">
		</image>
	</g>
</g>
</svg>
